<svg width="473.935" height="473.935" xmlns="http://www.w3.org/2000/svg" xml:space="preserve" version="1.1">

 <g>
  <title>Layer 1</title>
  <circle id="svg_1" fill="#337180" r="236.967" cy="237.967" cx="235.967"/>
  <path id="svg_2" fill="#448A96" d="m236.952,473.935c78.533,0 148.115,-38.222 191.232,-97.058c-8.011,-11.48 -39.525,-45.025 -145.593,-70.548c0,-24.082 -2.398,-38.507 -2.398,-38.507s31.289,-43.337 33.691,-103.513c0,-9.568 4.7,-77.436 -77.017,-80.508c0,-0.03 0,-0.079 0,-0.101c-0.202,0 -0.382,0.045 -0.602,0.045c-0.21,0 -0.385,-0.045 -0.595,-0.045c0,0.022 0,0.075 0,0.101c-81.702,3.068 -77.017,70.941 -77.017,80.505c2.398,60.175 33.691,103.513 33.691,103.513s-2.417,14.425 -2.417,38.507c-103.263,24.848 -135.847,57.297 -144.883,69.582c43.06,59.378 112.953,98.027 191.908,98.027z"/>
  <g id="svg_3"/>
  <g id="svg_4"/>
  <g id="svg_5"/>
  <g id="svg_6"/>
  <g id="svg_7"/>
  <g id="svg_8"/>
  <g id="svg_9"/>
  <g id="svg_10"/>
  <g id="svg_11"/>
  <g id="svg_12"/>
  <g id="svg_13"/>
  <g id="svg_14"/>
  <g id="svg_15"/>
  <g id="svg_16"/>
  <g id="svg_17"/>
  <g transform="rotate(-179.57 387.968 428.049)" stroke="null" stroke-width="0">
   <path stroke="null" d="m335.47515,393.64251l104.98472,0c7.26284,0 10.89426,8.77253 5.75315,13.91364l-52.47196,52.51276c-3.18259,3.18259 -8.3645,3.18259 -11.54709,0l-52.47196,-52.51276c-5.14111,-5.14111 -1.50969,-13.91364 5.75315,-13.91364z"/>
  </g>
 </g>
</svg>